<svg preserveAspectRatio="none" width="100%" height="100%" overflow="visible" style="display: block;" viewBox="0 0 16 16" fill="none" xmlns="http://www.w3.org/2000/svg">
<g id="CaretDoubleUp">
<path id="Vector" d="M13.5306 11.9694C13.6715 12.1103 13.7507 12.3014 13.7507 12.5006C13.7507 12.6999 13.6715 12.891 13.5306 13.0319C13.3897 13.1728 13.1986 13.2519 12.9994 13.2519C12.8001 13.2519 12.609 13.1728 12.4681 13.0319L8 8.5625L3.53063 13.0306C3.38973 13.1715 3.19863 13.2507 2.99938 13.2507C2.80012 13.2507 2.60902 13.1715 2.46813 13.0306C2.32723 12.8897 2.24807 12.6986 2.24807 12.4994C2.24807 12.3001 2.32723 12.109 2.46813 11.9681L7.46812 6.96812C7.5378 6.8982 7.6206 6.84273 7.71176 6.80487C7.80292 6.76702 7.90066 6.74753 7.99937 6.74753C8.09809 6.74753 8.19583 6.76702 8.28699 6.80487C8.37815 6.84273 8.46095 6.8982 8.53063 6.96812L13.5306 11.9694ZM3.53063 8.03187L8 3.5625L12.4694 8.0325C12.6103 8.1734 12.8014 8.25255 13.0006 8.25255C13.1999 8.25255 13.391 8.1734 13.5319 8.0325C13.6728 7.8916 13.7519 7.70051 13.7519 7.50125C13.7519 7.30199 13.6728 7.1109 13.5319 6.97L8.53187 1.97C8.4622 1.90008 8.3794 1.8446 8.28824 1.80675C8.19707 1.76889 8.09934 1.74941 8.00062 1.74941C7.90191 1.74941 7.80418 1.76889 7.71301 1.80675C7.62185 1.8446 7.53905 1.90008 7.46938 1.97L2.46937 6.97C2.32848 7.1109 2.24932 7.30199 2.24932 7.50125C2.24932 7.70051 2.32848 7.8916 2.46937 8.0325C2.61027 8.1734 2.80137 8.25255 3.00062 8.25255C3.19988 8.25255 3.39098 8.1734 3.53187 8.0325L3.53063 8.03187Z" fill="var(--fill-0, #815E18)"/>
</g>
</svg>
