<svg preserveAspectRatio="none" width="100%" height="100%" overflow="visible" style="display: block;" viewBox="0 0 16 16" fill="none" xmlns="http://www.w3.org/2000/svg">
<g id="CaretDoubleDown">
<path id="Vector" d="M13.5306 7.96937C13.6005 8.03905 13.656 8.12185 13.6939 8.21301C13.7317 8.30417 13.7512 8.40191 13.7512 8.50062C13.7512 8.59934 13.7317 8.69707 13.6939 8.78824C13.656 8.8794 13.6005 8.9622 13.5306 9.03187L8.53063 14.0319C8.46095 14.1018 8.37815 14.1573 8.28699 14.1951C8.19583 14.233 8.09809 14.2525 7.99937 14.2525C7.90066 14.2525 7.80292 14.233 7.71176 14.1951C7.6206 14.1573 7.5378 14.1018 7.46812 14.0319L2.46813 9.03187C2.39836 8.96211 2.34302 8.87929 2.30526 8.78814C2.26751 8.69698 2.24807 8.59929 2.24807 8.50062C2.24807 8.40196 2.26751 8.30427 2.30526 8.21311C2.34302 8.12196 2.39836 8.03914 2.46813 7.96937C2.53789 7.89961 2.62071 7.84427 2.71186 7.80651C2.80302 7.76876 2.90071 7.74932 2.99938 7.74932C3.09804 7.74932 3.19573 7.76876 3.28689 7.80651C3.37804 7.84427 3.46086 7.89961 3.53063 7.96937L8 12.4375L12.4694 7.9675C12.5392 7.89789 12.622 7.84272 12.7131 7.80514C12.8042 7.76755 12.9018 7.7483 13.0004 7.74847C13.099 7.74865 13.1965 7.76825 13.2875 7.80615C13.3785 7.84405 13.4611 7.89952 13.5306 7.96937ZM7.46812 9.03187C7.5378 9.10179 7.6206 9.15727 7.71176 9.19513C7.80292 9.23298 7.90066 9.25247 7.99937 9.25247C8.09809 9.25247 8.19583 9.23298 8.28699 9.19513C8.37815 9.15727 8.46095 9.10179 8.53063 9.03187L13.5306 4.03188C13.6004 3.96211 13.6557 3.87929 13.6935 3.78814C13.7312 3.69698 13.7507 3.59929 13.7507 3.50062C13.7507 3.40196 13.7312 3.30427 13.6935 3.21311C13.6557 3.12196 13.6004 3.03914 13.5306 2.96937C13.4609 2.89961 13.378 2.84427 13.2869 2.80651C13.1957 2.76876 13.098 2.74932 12.9994 2.74932C12.9007 2.74932 12.803 2.76876 12.7119 2.80651C12.6207 2.84427 12.5379 2.89961 12.4681 2.96937L8 7.4375L3.53063 2.96937C3.38973 2.82848 3.19863 2.74932 2.99938 2.74932C2.80012 2.74932 2.60902 2.82848 2.46813 2.96937C2.32723 3.11027 2.24807 3.30137 2.24807 3.50062C2.24807 3.69988 2.32723 3.89098 2.46813 4.03188L7.46812 9.03187Z" fill="var(--fill-0, #815E18)"/>
</g>
</svg>
