<svg preserveAspectRatio="none" width="100%" height="100%" overflow="visible" style="display: block;" viewBox="0 0 40 40" fill="none" xmlns="http://www.w3.org/2000/svg">
<g id="FilePdf" clip-path="url(#clip0_0_25)">
<g id="Vector">
</g>
<path id="Vector_2" d="M6.875 18.75H33.125C33.2908 18.75 33.4497 18.6842 33.5669 18.5669C33.6842 18.4497 33.75 18.2908 33.75 18.125V13.75C33.7501 13.5858 33.7179 13.4232 33.6552 13.2714C33.5924 13.1197 33.5004 12.9818 33.3844 12.8656L24.6344 4.11563C24.5182 3.99958 24.3803 3.90756 24.2286 3.84483C24.0768 3.78209 23.9142 3.74987 23.75 3.75H8.75C8.08696 3.75 7.45107 4.01339 6.98223 4.48223C6.51339 4.95107 6.25 5.58696 6.25 6.25V18.125C6.25 18.2908 6.31585 18.4497 6.43306 18.5669C6.55027 18.6842 6.70924 18.75 6.875 18.75ZM23.75 6.875L30.625 13.75H23.75V6.875ZM35 23.8328C34.972 24.1541 34.8236 24.453 34.5846 24.6694C34.3455 24.8859 34.0334 25.004 33.7109 25H30V27.5H32.4578C32.7804 27.4957 33.0927 27.6136 33.3318 27.8302C33.571 28.0467 33.7193 28.3458 33.7469 28.6672C33.7582 28.8382 33.7343 29.0097 33.6766 29.171C33.6189 29.3324 33.5286 29.4801 33.4114 29.6051C33.2942 29.7301 33.1525 29.8296 32.9952 29.8976C32.8378 29.9655 32.6682 30.0004 32.4969 30H30V32.4578C30.0043 32.7804 29.8864 33.0927 29.6698 33.3318C29.4533 33.571 29.1542 33.7193 28.8328 33.7469C28.6618 33.7582 28.4903 33.7343 28.329 33.6766C28.1676 33.6189 28.0199 33.5286 27.8949 33.4114C27.7699 33.2942 27.6704 33.1525 27.6024 32.9952C27.5345 32.8378 27.4996 32.6682 27.5 32.4969V23.75C27.5 23.4185 27.6317 23.1005 27.8661 22.8661C28.1005 22.6317 28.4185 22.5 28.75 22.5H33.75C33.9214 22.4996 34.091 22.5345 34.2483 22.6024C34.4056 22.6703 34.5473 22.7699 34.6645 22.8949C34.7817 23.0199 34.872 23.1676 34.9297 23.329C34.9874 23.4903 35.0114 23.6618 35 23.8328ZM10 22.5H7.5C7.16848 22.5 6.85054 22.6317 6.61612 22.8661C6.3817 23.1005 6.25 23.4185 6.25 23.75V32.4578C6.24486 32.7809 6.36246 33.094 6.57908 33.3338C6.7957 33.5736 7.09521 33.7224 7.41719 33.75C7.58817 33.7614 7.75966 33.7374 7.92101 33.6797C8.08236 33.622 8.23012 33.5317 8.35511 33.4145C8.4801 33.2973 8.57965 33.1556 8.64758 32.9983C8.71552 32.841 8.75038 32.6714 8.75 32.5V31.25H9.90625C12.2875 31.25 14.3031 29.3875 14.3734 27.0078C14.3912 26.4223 14.2913 25.8392 14.0795 25.2931C13.8677 24.747 13.5484 24.249 13.1405 23.8286C12.7326 23.4082 12.2445 23.0739 11.705 22.8457C11.1655 22.6175 10.5858 22.4999 10 22.5ZM9.94531 28.75H8.75V25H10C10.2623 24.9988 10.5218 25.0526 10.762 25.1579C11.0022 25.2633 11.2176 25.4178 11.3943 25.6116C11.571 25.8054 11.7051 26.0341 11.7879 26.2829C11.8707 26.5318 11.9004 26.7952 11.875 27.0563C11.8204 27.5275 11.5928 27.9617 11.2363 28.2747C10.8797 28.5876 10.4197 28.757 9.94531 28.75ZM20 22.5H17.5C17.1685 22.5 16.8505 22.6317 16.6161 22.8661C16.3817 23.1005 16.25 23.4185 16.25 23.75V32.5C16.25 32.8315 16.3817 33.1495 16.6161 33.3839C16.8505 33.6183 17.1685 33.75 17.5 33.75H19.8938C22.9656 33.75 25.5516 31.3312 25.6234 28.2609C25.6416 27.511 25.5095 26.7651 25.2351 26.0669C24.9606 25.3688 24.5493 24.7326 24.0253 24.1958C23.5013 23.6591 22.8753 23.2325 22.184 22.9413C21.4927 22.65 20.7501 22.5 20 22.5ZM19.9234 31.25H18.75V25H20C20.4207 24.9997 20.8371 25.0843 21.2243 25.2488C21.6115 25.4134 21.9615 25.6544 22.2534 25.9574C22.5452 26.2605 22.7728 26.6193 22.9226 27.0124C23.0723 27.4056 23.1412 27.8249 23.125 28.2453C23.0594 29.9359 21.6156 31.25 19.9234 31.25Z" fill="var(--fill-0, #D9262C)"/>
</g>
<defs>
<clipPath id="clip0_0_25">
<rect width="40" height="40" fill="white"/>
</clipPath>
</defs>
</svg>
