<svg preserveAspectRatio="none" width="100%" height="100%" overflow="visible" style="display: block;" viewBox="0 0 40 40" fill="none" xmlns="http://www.w3.org/2000/svg">
<g id="FileJpg" clip-path="url(#clip0_0_45)">
<g id="Vector">
</g>
<path id="Vector_2" d="M6.875 18.75H33.125C33.2908 18.75 33.4497 18.6842 33.5669 18.5669C33.6842 18.4497 33.75 18.2908 33.75 18.125V13.75C33.7501 13.5858 33.7179 13.4232 33.6552 13.2714C33.5924 13.1197 33.5004 12.9818 33.3844 12.8656L24.6344 4.11563C24.5182 3.99958 24.3803 3.90756 24.2286 3.84483C24.0768 3.78209 23.9142 3.74987 23.75 3.75H8.75C8.08696 3.75 7.45107 4.01339 6.98223 4.48223C6.51339 4.95107 6.25 5.58696 6.25 6.25V18.125C6.25 18.2908 6.31585 18.4497 6.43306 18.5669C6.55027 18.6842 6.70924 18.75 6.875 18.75ZM23.75 6.875L30.625 13.75H23.75V6.875ZM18.75 22.5H16.25C15.9185 22.5 15.6005 22.6317 15.3661 22.8661C15.1317 23.1005 15 23.4185 15 23.75V32.4578C14.9957 32.7804 15.1136 33.0927 15.3302 33.3318C15.5467 33.571 15.8458 33.7193 16.1672 33.7469C16.3382 33.7582 16.5097 33.7343 16.671 33.6766C16.8324 33.6189 16.9801 33.5286 17.1051 33.4114C17.2301 33.2942 17.3297 33.1525 17.3976 32.9952C17.4655 32.8378 17.5004 32.6682 17.5 32.4969V31.2469H18.6563C21.0375 31.2469 23.0516 29.3844 23.1234 27.0047C23.1408 26.4195 23.0405 25.8367 22.8285 25.291C22.6165 24.7452 22.2972 24.2475 21.8893 23.8275C21.4815 23.4074 20.9935 23.0735 20.4543 22.8454C19.915 22.6174 19.3355 22.5 18.75 22.5ZM18.6953 28.75H17.5V25H18.75C19.0115 25.0001 19.27 25.0548 19.5091 25.1608C19.7481 25.2667 19.9623 25.4215 20.138 25.6151C20.3137 25.8087 20.447 26.037 20.5292 26.2852C20.6115 26.5334 20.6409 26.796 20.6156 27.0563C20.5619 27.5262 20.3358 27.9595 19.9811 28.2723C19.6264 28.5852 19.1683 28.7554 18.6953 28.75ZM33.75 31.3859C33.7499 31.7109 33.6232 32.0231 33.3969 32.2563C32.9621 32.7233 32.4366 33.0967 31.8525 33.3536C31.2684 33.6104 30.6381 33.7453 30 33.75C27.2438 33.75 25 31.2266 25 28.125C25 25.0234 27.2438 22.5 30 22.5C30.8941 22.5027 31.768 22.7667 32.5141 23.2594C32.7852 23.4284 32.9835 23.6924 33.0702 23.9999C33.1569 24.3074 33.1257 24.6362 32.9828 24.9219C32.9006 25.0769 32.7868 25.2129 32.6486 25.321C32.5104 25.4291 32.351 25.5069 32.1808 25.5493C32.0106 25.5917 31.8333 25.5979 31.6606 25.5673C31.4878 25.5367 31.3234 25.4702 31.1781 25.3719C30.8326 25.1305 30.4215 25.0008 30 25C28.6219 25 27.5 26.4062 27.5 28.125C27.5 29.8437 28.6219 31.25 30 31.25C30.451 31.2448 30.8887 31.0965 31.25 30.8266V30C31.0786 30.0004 30.909 29.9655 30.7517 29.8976C30.5944 29.8296 30.4527 29.7301 30.3355 29.6051C30.2183 29.4801 30.128 29.3324 30.0703 29.171C30.0126 29.0097 29.9886 28.8382 30 28.6672C30.0276 28.3458 30.1759 28.0467 30.4151 27.8302C30.6542 27.6136 30.9665 27.4957 31.2891 27.5H32.5C32.8315 27.5 33.1495 27.6317 33.3839 27.8661C33.6183 28.1005 33.75 28.4185 33.75 28.75V31.3859ZM12.5 23.75V29.5953C12.5 31.8172 10.7531 33.6984 8.52969 33.7484C7.99345 33.7607 7.46009 33.6666 6.9604 33.4716C6.46071 33.2766 6.00457 32.9846 5.61832 32.6125C5.23206 32.2403 4.92332 31.7953 4.70993 31.3032C4.49653 30.8111 4.3827 30.2816 4.375 29.7453C4.36534 29.4235 4.47768 29.1098 4.6895 28.8673C4.90131 28.6248 5.19696 28.4713 5.51719 28.4375C5.69311 28.4222 5.87028 28.4443 6.03702 28.5024C6.20377 28.5606 6.35631 28.6533 6.4846 28.7747C6.61288 28.896 6.714 29.0432 6.78129 29.2064C6.84858 29.3697 6.88052 29.5454 6.875 29.7219C6.85943 29.9669 6.90906 30.2116 7.01885 30.4312C7.12864 30.6508 7.29466 30.8373 7.5 30.9719C8.72656 31.725 10 30.8547 10 29.6906V23.7922C9.99486 23.4691 10.1125 23.156 10.3291 22.9162C10.5457 22.6764 10.8452 22.5276 11.1672 22.5C11.3382 22.4886 11.5097 22.5126 11.671 22.5703C11.8324 22.628 11.9801 22.7183 12.1051 22.8355C12.2301 22.9527 12.3297 23.0944 12.3976 23.2517C12.4655 23.409 12.5004 23.5786 12.5 23.75Z" fill="var(--fill-0, #1D81C9)"/>
</g>
<defs>
<clipPath id="clip0_0_45">
<rect width="40" height="40" fill="white"/>
</clipPath>
</defs>
</svg>
