<svg preserveAspectRatio="none" width="100%" height="100%" overflow="visible" style="display: block;" viewBox="0 0 20 20" fill="none" xmlns="http://www.w3.org/2000/svg">
<g id="CaretRight">
<path id="Vector" d="M14.4133 10.6633L8.16328 16.9133C7.98716 17.0894 7.74829 17.1883 7.49922 17.1883C7.25015 17.1883 7.01128 17.0894 6.83516 16.9133C6.65904 16.7372 6.56009 16.4983 6.56009 16.2492C6.56009 16.0001 6.65904 15.7613 6.83516 15.5852L12.4219 10L6.83672 4.41328C6.74951 4.32608 6.68034 4.22255 6.63314 4.10861C6.58595 3.99467 6.56166 3.87255 6.56166 3.74922C6.56166 3.62589 6.58595 3.50377 6.63314 3.38983C6.68034 3.27589 6.74951 3.17236 6.83672 3.08516C6.92393 2.99795 7.02745 2.92877 7.14139 2.88158C7.25533 2.83438 7.37745 2.81009 7.50078 2.81009C7.62411 2.81009 7.74623 2.83438 7.86017 2.88158C7.97411 2.92877 8.07764 2.99795 8.16484 3.08516L14.4148 9.33516C14.5021 9.42236 14.5714 9.52593 14.6186 9.63994C14.6657 9.75395 14.6899 9.87616 14.6898 9.99954C14.6897 10.1229 14.6652 10.2451 14.6177 10.359C14.5703 10.4729 14.5008 10.5763 14.4133 10.6633Z" fill="var(--fill-0, white)"/>
</g>
</svg>
