<svg preserveAspectRatio="none" width="100%" height="100%" overflow="visible" style="display: block;" viewBox="0 0 20 20" fill="none" xmlns="http://www.w3.org/2000/svg">
<g id="ClockClockwise">
<path id="Vector" d="M10.9375 6.25V9.46953L13.607 11.0711C13.715 11.1332 13.8095 11.2162 13.885 11.3152C13.9605 11.4142 14.0155 11.5273 14.0469 11.6479C14.0782 11.7684 14.0852 11.894 14.0675 12.0172C14.0497 12.1405 14.0076 12.259 13.9436 12.3658C13.8795 12.4726 13.7948 12.5656 13.6945 12.6393C13.5941 12.713 13.48 12.766 13.3589 12.7952C13.2379 12.8243 13.1122 12.8291 12.9893 12.8091C12.8663 12.7891 12.7486 12.7449 12.643 12.6789L9.51797 10.8039C9.37909 10.7207 9.26414 10.6028 9.18432 10.462C9.1045 10.3211 9.06253 10.1619 9.0625 10V6.25C9.0625 6.00136 9.16127 5.7629 9.33709 5.58709C9.5129 5.41127 9.75136 5.3125 10 5.3125C10.2486 5.3125 10.4871 5.41127 10.6629 5.58709C10.8387 5.7629 10.9375 6.00136 10.9375 6.25ZM17.5 4.0625C17.2514 4.0625 17.0129 4.16127 16.8371 4.33709C16.6613 4.5129 16.5625 4.75136 16.5625 5V5.57578C16.2336 5.21094 15.8922 4.84844 15.5242 4.47578C14.4384 3.39006 13.0567 2.64839 11.5517 2.34346C10.0468 2.03852 8.48532 2.18383 7.06249 2.76124C5.63966 3.33865 4.41853 4.32255 3.55169 5.59001C2.68484 6.85746 2.21072 8.35225 2.18856 9.88762C2.16641 11.423 2.5972 12.9309 3.42711 14.2228C4.25702 15.5147 5.44924 16.5335 6.85482 17.1517C8.2604 17.7699 9.81699 17.9602 11.3301 17.6988C12.8432 17.4375 14.2458 16.736 15.3625 15.682C15.5434 15.5113 15.649 15.2757 15.6562 15.0271C15.6634 14.7784 15.5715 14.5371 15.4008 14.3562C15.23 14.1754 14.9944 14.0697 14.7458 14.0625C14.4972 14.0554 14.2559 14.1472 14.075 14.318C13.2264 15.1188 12.1607 15.6519 11.011 15.8506C9.86123 16.0493 8.67842 15.9048 7.61029 15.4353C6.54216 14.9657 5.63605 14.1918 5.00515 13.2103C4.37424 12.2288 4.04651 11.0832 4.06287 9.91651C4.07924 8.74984 4.43899 7.61385 5.09718 6.65043C5.75537 5.68701 6.68283 4.93887 7.76371 4.49945C8.84459 4.06004 10.031 3.94883 11.1747 4.17971C12.3184 4.4106 13.3688 4.97334 14.1945 5.79766C14.657 6.26562 15.0781 6.71875 15.4867 7.1875H14.375C14.1264 7.1875 13.8879 7.28627 13.7121 7.46209C13.5363 7.6379 13.4375 7.87636 13.4375 8.125C13.4375 8.37364 13.5363 8.6121 13.7121 8.78791C13.8879 8.96373 14.1264 9.0625 14.375 9.0625H17.5C17.7486 9.0625 17.9871 8.96373 18.1629 8.78791C18.3387 8.6121 18.4375 8.37364 18.4375 8.125V5C18.4375 4.75136 18.3387 4.5129 18.1629 4.33709C17.9871 4.16127 17.7486 4.0625 17.5 4.0625Z" fill="var(--fill-0, #255AC3)"/>
</g>
</svg>
