<svg preserveAspectRatio="none" width="100%" height="100%" overflow="visible" style="display: block;" viewBox="0 0 20 20" fill="none" xmlns="http://www.w3.org/2000/svg">
<g id="UserCircleCheck">
<path id="Vector" d="M17.293 8.13359C17.1295 8.16095 16.9836 8.25213 16.8873 8.38706C16.7911 8.522 16.7523 8.68964 16.7797 8.85312C16.8431 9.23212 16.875 9.61573 16.875 10C16.8765 11.683 16.2579 13.3075 15.1375 14.5633C14.4404 13.5532 13.4603 12.7717 12.3203 12.3172C12.9327 11.8349 13.3795 11.1737 13.5987 10.4257C13.8179 9.67766 13.7985 8.87992 13.5433 8.1434C13.2881 7.40687 12.8097 6.76819 12.1746 6.31616C11.5396 5.86414 10.7795 5.62123 10 5.62123C9.22051 5.62123 8.4604 5.86414 7.82536 6.31616C7.19032 6.76819 6.71193 7.40687 6.45671 8.1434C6.20149 8.87992 6.18212 9.67766 6.40131 10.4257C6.62049 11.1737 7.06733 11.8349 7.67969 12.3172C6.5397 12.7717 5.55956 13.5532 4.8625 14.5633C3.98337 13.5726 3.40912 12.3491 3.20878 11.0399C3.00845 9.73063 3.19056 8.39139 3.73323 7.18318C4.2759 5.97497 5.15601 4.94923 6.26775 4.2293C7.37949 3.50937 8.67552 3.1259 10 3.125C10.3843 3.12494 10.7679 3.15682 11.1469 3.22031C11.3096 3.24599 11.4759 3.20637 11.6096 3.11007C11.7433 3.01377 11.8335 2.86858 11.8607 2.70608C11.8879 2.54358 11.8498 2.37692 11.7548 2.24235C11.6597 2.10778 11.5154 2.01619 11.3531 1.9875C9.65581 1.70196 7.91167 1.96323 6.37253 2.73357C4.83338 3.50392 3.57888 4.74348 2.79014 6.27328C2.00141 7.80308 1.71926 9.54397 1.98443 11.2446C2.24961 12.9452 3.04838 14.5175 4.26543 15.7346C5.48247 16.9516 7.05481 17.7504 8.75542 18.0156C10.456 18.2807 12.1969 17.9986 13.7267 17.2099C15.2565 16.4211 16.4961 15.1666 17.2664 13.6275C18.0368 12.0883 18.298 10.3442 18.0125 8.64688C17.9851 8.4834 17.894 8.33748 17.759 8.24122C17.6241 8.14497 17.4564 8.10625 17.293 8.13359ZM7.5 9.375C7.5 8.88055 7.64662 8.3972 7.92133 7.98607C8.19603 7.57495 8.58648 7.25452 9.04329 7.0653C9.50011 6.87608 10.0028 6.82657 10.4877 6.92304C10.9727 7.0195 11.4181 7.2576 11.7678 7.60723C12.1174 7.95686 12.3555 8.40232 12.452 8.88727C12.5484 9.37223 12.4989 9.87489 12.3097 10.3317C12.1205 10.7885 11.8 11.179 11.3889 11.4537C10.9778 11.7284 10.4945 11.875 10 11.875C9.33696 11.875 8.70107 11.6116 8.23223 11.1428C7.76339 10.6739 7.5 10.038 7.5 9.375ZM5.7875 15.4297C6.23964 14.7226 6.8625 14.1406 7.59869 13.7375C8.33487 13.3345 9.16068 13.1232 10 13.1232C10.8393 13.1232 11.6651 13.3345 12.4013 13.7375C13.1375 14.1406 13.7604 14.7226 14.2125 15.4297C13.0081 16.3664 11.5258 16.8749 10 16.8749C8.4742 16.8749 6.99193 16.3664 5.7875 15.4297ZM18.5672 3.56719L16.0672 6.06719C16.0091 6.1253 15.9402 6.1714 15.8643 6.20285C15.7885 6.2343 15.7071 6.25049 15.625 6.25049C15.5429 6.25049 15.4615 6.2343 15.3857 6.20285C15.3098 6.1714 15.2409 6.1253 15.1828 6.06719L13.9328 4.81719C13.8747 4.75912 13.8287 4.69018 13.7973 4.61431C13.7658 4.53844 13.7497 4.45712 13.7497 4.375C13.7497 4.29288 13.7658 4.21156 13.7973 4.13569C13.8287 4.05982 13.8747 3.99088 13.9328 3.93281C14.0501 3.81554 14.2091 3.74965 14.375 3.74965C14.4571 3.74965 14.5384 3.76583 14.6143 3.79725C14.6902 3.82868 14.7591 3.87474 14.8172 3.93281L15.625 4.74141L17.6828 2.68281C17.7409 2.62474 17.8098 2.57868 17.8857 2.54725C17.9616 2.51583 18.0429 2.49965 18.125 2.49965C18.2071 2.49965 18.2884 2.51583 18.3643 2.54725C18.4402 2.57868 18.5091 2.62474 18.5672 2.68281C18.6253 2.74088 18.6713 2.80982 18.7027 2.88569C18.7342 2.96156 18.7503 3.04288 18.7503 3.125C18.7503 3.20712 18.7342 3.28844 18.7027 3.36431C18.6713 3.44018 18.6253 3.50912 18.5672 3.56719Z" fill="var(--fill-0, #142952)"/>
</g>
</svg>
