<svg preserveAspectRatio="none" width="100%" height="100%" overflow="visible" style="display: block;" viewBox="0 0 20 20" fill="none" xmlns="http://www.w3.org/2000/svg">
<g id="Cardholder">
<path id="Vector" d="M16.25 3.75H3.75C3.25272 3.75 2.77581 3.94754 2.42417 4.29917C2.07254 4.65081 1.875 5.12772 1.875 5.625V14.375C1.875 14.8723 2.07254 15.3492 2.42417 15.7008C2.77581 16.0525 3.25272 16.25 3.75 16.25H16.25C16.7473 16.25 17.2242 16.0525 17.5758 15.7008C17.9275 15.3492 18.125 14.8723 18.125 14.375V5.625C18.125 5.12772 17.9275 4.65081 17.5758 4.29917C17.2242 3.94754 16.7473 3.75 16.25 3.75ZM3.125 7.5H16.875V8.75H12.5C12.3342 8.75 12.1753 8.81585 12.0581 8.93306C11.9408 9.05027 11.875 9.20924 11.875 9.375C11.875 9.87228 11.6775 10.3492 11.3258 10.7008C10.9742 11.0525 10.4973 11.25 10 11.25C9.50272 11.25 9.02581 11.0525 8.67417 10.7008C8.32254 10.3492 8.125 9.87228 8.125 9.375C8.125 9.20924 8.05915 9.05027 7.94194 8.93306C7.82473 8.81585 7.66576 8.75 7.5 8.75H3.125V7.5ZM3.75 5H16.25C16.4158 5 16.5747 5.06585 16.6919 5.18306C16.8092 5.30027 16.875 5.45924 16.875 5.625V6.25H3.125V5.625C3.125 5.45924 3.19085 5.30027 3.30806 5.18306C3.42527 5.06585 3.58424 5 3.75 5ZM16.25 15H3.75C3.58424 15 3.42527 14.9342 3.30806 14.8169C3.19085 14.6997 3.125 14.5408 3.125 14.375V10H6.9375C7.08095 10.7064 7.46421 11.3415 8.02234 11.7977C8.58047 12.2539 9.27915 12.5031 10 12.5031C10.7208 12.5031 11.4195 12.2539 11.9777 11.7977C12.5358 11.3415 12.9191 10.7064 13.0625 10H16.875V14.375C16.875 14.5408 16.8092 14.6997 16.6919 14.8169C16.5747 14.9342 16.4158 15 16.25 15Z" fill="var(--fill-0, #295214)"/>
</g>
</svg>
