<svg preserveAspectRatio="none" width="100%" height="100%" overflow="visible" style="display: block;" viewBox="0 0 20 20" fill="none" xmlns="http://www.w3.org/2000/svg">
<g id="MagnifyingGlass">
<path id="Vector" d="M18.1633 16.8367L14.4531 13.125C15.5655 11.6754 16.0849 9.85687 15.9059 8.03839C15.7268 6.21991 14.8627 4.53763 13.4889 3.3328C12.1151 2.12798 10.3345 1.49082 8.50821 1.55059C6.68191 1.61036 4.94673 2.36258 3.65466 3.65466C2.36258 4.94673 1.61036 6.68191 1.55059 8.50821C1.49082 10.3345 2.12798 12.1151 3.3328 13.4889C4.53763 14.8627 6.21991 15.7268 8.03839 15.9059C9.85687 16.0849 11.6754 15.5655 13.125 14.4531L16.8383 18.1672C16.9255 18.2544 17.029 18.3236 17.143 18.3708C17.2569 18.418 17.379 18.4423 17.5023 18.4423C17.6257 18.4423 17.7478 18.418 17.8617 18.3708C17.9757 18.3236 18.0792 18.2544 18.1664 18.1672C18.2536 18.08 18.3228 17.9765 18.37 17.8625C18.4172 17.7486 18.4415 17.6265 18.4415 17.5031C18.4415 17.3798 18.4172 17.2577 18.37 17.1437C18.3228 17.0298 18.2536 16.9263 18.1664 16.8391L18.1633 16.8367ZM3.4375 8.75C3.4375 7.69929 3.74907 6.67217 4.33282 5.79853C4.91656 4.9249 5.74626 4.24398 6.71699 3.84189C7.68773 3.4398 8.75589 3.33459 9.78642 3.53958C10.8169 3.74456 11.7635 4.25053 12.5065 4.9935C13.2495 5.73646 13.7554 6.68306 13.9604 7.71358C14.1654 8.74411 14.0602 9.81227 13.6581 10.783C13.256 11.7537 12.5751 12.5834 11.7015 13.1672C10.8278 13.7509 9.80071 14.0625 8.75 14.0625C7.34148 14.0611 5.99107 13.5009 4.99509 12.5049C3.99912 11.5089 3.43895 10.1585 3.4375 8.75Z" fill="var(--fill-0, #5A72A5)"/>
</g>
</svg>
